<svg width="69" height="69" viewBox="0 0 69 69" fill="none" xmlns="http://www.w3.org/2000/svg">
<rect width="69" height="69" rx="34.5" fill="#672AE9" fill-opacity="0.4"/>
<rect x="6" y="7" width="56" height="56" rx="28" fill="#672AE9"/>
<path d="M30.3132 34.9741H30.3237M34.522 34.9741H34.5325M38.7307 34.9741H38.7413M30.208 43.3917C32.2162 44.4219 34.5263 44.7009 36.722 44.1785C38.9177 43.6561 40.8547 42.3667 42.1838 40.5425C43.5129 38.7184 44.1468 36.4795 43.9713 34.2293C43.7958 31.9792 42.8223 29.8657 41.2264 28.2697C39.6304 26.6738 37.5169 25.7003 35.2667 25.5248C33.0166 25.3492 30.7777 25.9832 28.9536 27.3123C27.1294 28.6414 25.84 30.5784 25.3176 32.7741C24.7952 34.9698 25.0742 37.2799 26.1044 39.2881L24 45.4961L30.208 43.3917Z" stroke="white" stroke-width="2" stroke-linecap="round" stroke-linejoin="round"/>
</svg>
