<svg width="49" height="44" viewBox="0 0 49 44" fill="none" xmlns="http://www.w3.org/2000/svg">
<path d="M15.4 13V29C15.4 29.5304 15.6107 30.0391 15.9858 30.4142C16.3609 30.7893 16.8696 31 17.4 31H33.4M28.4 15H30.4C30.9523 15 31.4 15.4477 31.4 16V26C31.4 26.5523 30.9523 27 30.4 27H28.4C27.8477 27 27.4 26.5523 27.4 26V16C27.4 15.4477 27.8477 15 28.4 15ZM20.4 18H22.4C22.9523 18 23.4 18.4477 23.4 19V26C23.4 26.5523 22.9523 27 22.4 27H20.4C19.8477 27 19.4 26.5523 19.4 26V19C19.4 18.4477 19.8477 18 20.4 18Z" stroke="#75719D" stroke-width="2" stroke-linecap="round" stroke-linejoin="round"/>
</svg>
