<svg width="36" height="36" viewBox="0 0 36 36" fill="none" xmlns="http://www.w3.org/2000/svg">
<rect width="36" height="36" rx="18" fill="url(#paint0_linear_15_1908)"/>
<path d="M26.3335 18.0001C26.3335 18.079 26.3111 18.1563 26.2689 18.223C26.2267 18.2897 26.1664 18.343 26.095 18.3768L11.095 25.4601C11.0201 25.4964 10.936 25.5094 10.8536 25.4973C10.7712 25.4851 10.6944 25.4485 10.6331 25.3922C10.5718 25.3358 10.5289 25.2624 10.5099 25.1813C10.4909 25.1002 10.4968 25.0153 10.5267 24.9376L12.895 18.5818C13.0347 18.2066 13.0347 17.7936 12.895 17.4184L10.5258 11.0626C10.4958 10.9848 10.4899 10.8998 10.5089 10.8186C10.5278 10.7373 10.5709 10.6637 10.6323 10.6073C10.6937 10.5509 10.7708 10.5143 10.8533 10.5024C10.9358 10.4904 11.0201 10.5035 11.095 10.5401L26.095 17.6234C26.1664 17.6572 26.2267 17.7105 26.2689 17.7772C26.3111 17.8439 26.3335 17.9212 26.3335 18.0001ZM26.3335 18.0001H13" stroke="#070118" stroke-width="1.66667" stroke-linecap="round" stroke-linejoin="round"/>
<defs>
<linearGradient id="paint0_linear_15_1908" x1="18" y1="3.12924e-07" x2="28.5" y2="38" gradientUnits="userSpaceOnUse">
<stop stop-color="#BFBCF5"/>
<stop offset="1" stop-color="#CFCCFB"/>
</linearGradient>
</defs>
</svg>
